Coordinates
version=1
nRows=11
nColumns=32
inDegrees=yes

Units are S.I. units (second, meters, Newtons, ...)
If the header above contains a line with 'inDegrees', this indicates whether rotational values are in degrees (yes) or radians (no).

endheader
time	pelvis_tilt	pelvis_list	pelvis_rotation	pelvis_tx	pelvis_ty	pelvis_tz	hip_flexion_r	hip_adduction_r	hip_rotation_r	knee_angle_r	knee_adduction_r	med_cond_adduction_r	lat_cond_adduction_r	patella_r_constrained_knee_angle	hip_flexion_l	hip_adduction_l	hip_rotation_l	knee_angle_l	knee_adduction_l	med_cond_adduction_l	lat_cond_adduction_l	patella_l_constrained_knee_angle	lumbar_extension	lumbar_bending	lumbar_rotation	ankle_angle_r	subtalar_angle_r	mtp_angle_r	ankle_angle_l	subtalar_angle_l	mtp_angle_l
      0.79000000	     -8.63594050	     -2.86066666	     -2.35118144	     -0.32335718	      0.86253584	      0.20729738	     20.58799398	      7.12369100	      4.14512346	    -19.91059460	      2.68594157	      0.00000000	      0.00000000	     -0.34750543	     36.50999170	     -8.83563358	      1.98746726	    -62.91527819	      7.85036750	      0.00000000	      0.00000000	     -1.09807875	     -9.94628424	      5.12941085	      3.26720448	      8.52830858	      6.68850094	     -0.00000000	     -2.51252371	     14.06049509	      0.00000000
      0.79500000	     -8.61286420	     -2.65199771	     -2.51650198	     -0.31714455	      0.86315792	      0.20750773	     19.83929028	      6.87651411	      4.14919658	    -19.57455446	      2.67101843	     -0.00000000	     -0.00000000	     -0.34164042	     37.03576813	     -8.78716796	      1.85679428	    -62.06286767	      8.03903060	     -0.00000000	     -0.00000000	     -1.08320138	    -10.00852890	      4.84642915	      3.28091804	      9.50456074	      7.33410214	      0.00000000	     -2.18948578	     13.51316921	      0.00000000
      0.80000000	     -8.67001813	     -2.62236563	     -2.69372853	     -0.31087587	      0.86363964	      0.20768564	     19.11835192	      6.86385781	      4.07196612	    -19.07841868	      2.52146318	     -0.00000000	     -0.00000000	     -0.33298122	     37.65655021	     -8.91830721	      1.77877535	    -61.20289166	      8.17811077	      0.00000000	      0.00000000	     -1.06819197	    -10.01093755	      4.83470251	      3.47625852	      9.24362232	      7.82977443	      0.00000000	     -1.51584060	     13.26823998	     -0.00000000
      0.80500000	     -8.68979651	     -2.50682105	     -2.86109945	     -0.30464645	      0.86410957	      0.20782149	     18.36348823	      6.71253679	      4.09304356	    -18.59931431	      2.50710373	      0.00000000	      0.00000000	     -0.32461927	     38.16930182	     -8.93177988	      1.69592258	    -60.20652657	      8.31162198	     -0.00000000	     -0.00000000	     -1.05080212	    -10.05840598	      4.68391106	      3.60481706	      9.27684524	      8.00824549	     -0.00000000	     -0.99961103	     12.95481161	      0.00000000
      0.81000000	     -8.67668147	     -2.28012016	     -3.02355518	     -0.29845407	      0.86455300	      0.20789813	     17.64432216	      6.38654390	      4.08771896	    -18.30023048	      2.58201323	     -0.00000000	     -0.00000000	     -0.31939928	     38.58123526	     -8.78877131	      1.58466576	    -59.06920880	      8.43585829	     -0.00000000	     -0.00000000	     -1.03095218	    -10.15804693	      4.37310811	      3.64469360	     10.40766112	      8.53190810	      0.00000000	     -0.69894984	     12.32161935	     -0.00000000
      0.81500000	     -8.74217733	     -2.34905645	     -3.20400640	     -0.29219185	      0.86476607	      0.20798103	     16.92733850	      6.46875231	      4.01596132	    -17.77748721	      2.44210486	     -0.00000000	     -0.00000000	     -0.31027568	     39.12895362	     -9.00008823	      1.57033102	    -58.01825358	      8.55448720	      0.00000000	      0.00000000	     -1.01260955	    -10.11788665	      4.57296610	      3.80992156	     10.07714086	      8.95068908	     -0.00000000	     -0.26387279	     11.84086108	      0.00000000
      0.82000000	     -8.78762757	     -2.27986444	     -3.39372533	     -0.28596474	      0.86499441	      0.20803360	     16.23794903	      6.34676687	      4.01644148	    -17.36571571	      2.44249426	     -0.00000000	     -0.00000000	     -0.30308892	     39.56776334	     -9.03490998	      1.49736525	    -56.80518238	      8.64682784	     -0.00000000	     -0.00000000	     -0.99143746	    -10.15148487	      4.53093186	      3.90840710	     10.25943128	      9.29161483	     -0.00000000	      0.11013059	     11.34123368	      0.00000000
      0.82500000	     -8.83850694	     -2.21975483	     -3.56454027	     -0.27973551	      0.86516844	      0.20802692	     15.55629795	      6.21252491	      4.01168286	    -16.92725258	      2.47651084	      0.00000000	     -0.00000000	     -0.29543629	     39.96719048	     -9.04564316	      1.46339945	    -55.48653466	      8.72003369	     -0.00000000	     -0.00000000	     -0.96842272	    -10.16325706	      4.48647130	      4.03188886	     10.16884875	      9.37211980	     -0.00000000	      0.38242921	     10.71713199	     -0.00000000
      0.83000000	     -8.89908914	     -2.18628419	     -3.76668878	     -0.27353496	      0.86521452	      0.20801252	     14.93790732	      6.11181021	      4.00956976	    -16.62599246	      2.52351411	      0.00000000	      0.00000000	     -0.29017831	     40.34580896	     -9.09850577	      1.42899634	    -54.11389058	      8.79366355	     -0.00000000	      0.00000000	     -0.94446556	    -10.18149184	      4.49664324	      4.13913375	     10.69955870	      9.78882225	      0.00000000	      0.73467297	     10.15049717	      0.00000000
      0.83500000	     -8.96439404	     -2.16855862	     -3.96787867	     -0.26732102	      0.86525802	      0.20798225	     14.30532657	      6.03618480	      4.01467332	    -16.22411744	      2.52145048	      0.00000000	      0.00000000	     -0.28316427	     40.67304612	     -9.15300030	      1.40334154	    -52.62393018	      8.85335293	     -0.00000000	     -0.00000000	     -0.91846085	    -10.18903240	      4.59523332	      4.27473686	     10.65033919	     10.07193981	      0.00000000	      0.94372590	      9.47904250	      0.00000000
      0.84000000	     -9.06478813	     -2.18789757	     -4.16611682	     -0.26112006	      0.86518699	      0.20791027	     13.73961071	      5.98710426	      3.98797556	    -15.88980358	      2.56264865	     -0.00000000	     -0.00000000	     -0.27732939	     41.00799982	     -9.23416059	      1.41449828	    -51.06725064	      8.90307197	      0.00000000	      0.00000000	     -0.89129166	    -10.15538364	      4.69939099	      4.39724563	     10.76847969	     10.27600381	      0.00000000	      1.12675146	      8.78317245	      0.00000000
